<svg width="18" height="15" viewBox="0 0 18 15" fill="none" xmlns="http://www.w3.org/2000/svg">
<path d="M9 10.8125C9 12.4531 9.79297 13.9023 11.0234 14.75H2C1.01562 14.75 0.25 13.9844 0.25 13V6.875C0.25 5.91797 1.01562 5.125 2 5.125H12.5C13.1289 5.125 13.7031 5.48047 14.0039 6.02734C13.9492 6.02734 13.8672 6 13.8125 6C11.1328 6 9 8.16016 9 10.8125ZM12.2812 2.9375C12.6367 2.9375 12.9375 3.23828 12.9375 3.59375C12.9375 3.97656 12.6367 4.25 12.2812 4.25H2.21875C1.83594 4.25 1.5625 3.97656 1.5625 3.59375C1.5625 3.23828 1.83594 2.9375 2.21875 2.9375H12.2812ZM10.9688 0.75C11.3242 0.75 11.625 1.05078 11.625 1.40625C11.625 1.78906 11.3242 2.0625 10.9688 2.0625H3.53125C3.14844 2.0625 2.875 1.78906 2.875 1.40625C2.875 1.05078 3.14844 0.75 3.53125 0.75H10.9688ZM13.8125 6.875C15.207 6.875 16.4922 7.64062 17.2031 8.84375C17.9141 10.0742 17.9141 11.5781 17.2031 12.7812C16.4922 14.0117 15.207 14.75 13.8125 14.75C12.3906 14.75 11.1055 14.0117 10.3945 12.7812C9.68359 11.5781 9.68359 10.0742 10.3945 8.84375C11.1055 7.64062 12.3906 6.875 13.8125 6.875ZM14.25 9.0625C14.25 8.84375 14.0312 8.625 13.8125 8.625C13.5664 8.625 13.375 8.84375 13.375 9.0625V10.375H12.0625C11.8164 10.375 11.625 10.5938 11.625 10.8125C11.625 11.0586 11.8164 11.25 12.0625 11.25H13.375V12.5625C13.375 12.8086 13.5664 13 13.8125 13C14.0312 13 14.25 12.8086 14.25 12.5625V11.25H15.5625C15.7812 11.25 16 11.0586 16 10.8125C16 10.5938 15.7812 10.375 15.5625 10.375H14.25V9.0625Z" fill="white"/>
</svg>
